<svg width="25" height="25" viewBox="0 0 25 25" fill="none" xmlns="http://www.w3.org/2000/svg">
<path d="M12.7729 1C12.5802 1 12.3878 1.00469 12.1953 1.01406C12.0029 1.02344 11.8107 1.03776 11.619 1.05651C11.4274 1.07552 11.2359 1.09896 11.0456 1.12734C10.8549 1.15573 10.6651 1.18854 10.4761 1.22604C10.2872 1.2638 10.0992 1.30599 9.91225 1.35287C9.72554 1.39948 9.53987 1.45104 9.35543 1.50677C9.17108 1.56276 8.98802 1.62318 8.80677 1.68802C8.62526 1.75313 8.44557 1.82239 8.2677 1.89609C8.08958 1.96979 7.91354 2.04792 7.73932 2.13021C7.56511 2.21276 7.39297 2.29922 7.22318 2.3901C7.05312 2.48099 6.88568 2.57578 6.72031 2.675C6.55521 2.77396 6.39245 2.87708 6.23229 2.98412C6.07187 3.09114 5.91458 3.20208 5.75963 3.31667C5.60495 3.43151 5.45312 3.55 5.30416 3.67239C5.15521 3.79453 5.00937 3.92031 4.86666 4.04974C4.72396 4.17917 4.58437 4.31198 4.44818 4.44818C4.31198 4.58438 4.17916 4.72396 4.04974 4.86667C3.92031 5.00938 3.79453 5.15521 3.6724 5.30417C3.55 5.45313 3.43151 5.60495 3.31666 5.75963C3.20208 5.91458 3.09115 6.07188 2.98411 6.23229C2.87708 6.39245 2.77396 6.55521 2.675 6.72031C2.57578 6.88568 2.48099 7.05313 2.39011 7.22318C2.29922 7.39297 2.21276 7.5651 2.13021 7.73933C2.04791 7.91354 1.96979 8.08958 1.8961 8.26771C1.8224 8.44558 1.75312 8.62526 1.68802 8.80677C1.62318 8.98802 1.56276 9.17108 1.50677 9.35544C1.45104 9.53988 1.39948 9.72554 1.35286 9.91226C1.30599 10.0992 1.26381 10.2873 1.22604 10.4761C1.18854 10.6651 1.15573 10.8549 1.12734 11.0456C1.09896 11.2359 1.07552 11.4274 1.05651 11.619C1.03776 11.8107 1.0237 12.0029 1.01406 12.1953C1.00469 12.3878 1 12.5802 1 12.7729C1 12.9657 1.00469 13.1581 1.01406 13.3505C1.0237 13.5429 1.03776 13.7352 1.05651 13.9269C1.07552 14.1185 1.09896 14.3099 1.12734 14.5003C1.15573 14.6909 1.18854 14.8807 1.22604 15.0698C1.26381 15.2586 1.30599 15.4466 1.35286 15.6336C1.39948 15.8203 1.45104 16.006 1.50677 16.1904C1.56276 16.3748 1.62318 16.5578 1.68802 16.7391C1.75312 16.9206 1.8224 17.1003 1.8961 17.2782C1.96979 17.4562 2.04791 17.6323 2.13021 17.8065C2.21276 17.9807 2.29922 18.1526 2.39011 18.3227C2.48099 18.4927 2.57578 18.6602 2.675 18.8255C2.77396 18.9907 2.87708 19.1534 2.98411 19.3136C3.09115 19.474 3.20208 19.6312 3.31666 19.7862C3.43151 19.9409 3.55 20.0927 3.6724 20.2416C3.79453 20.3907 3.92031 20.5365 4.04974 20.6791C4.17916 20.8219 4.31198 20.9615 4.44818 21.0977C4.58437 21.2338 4.72396 21.3666 4.86666 21.4961C5.00937 21.6255 5.15521 21.7513 5.30416 21.8734C5.45312 21.9958 5.60495 22.1144 5.75963 22.2291C5.91458 22.3437 6.07187 22.4546 6.23229 22.5617C6.39245 22.6687 6.55521 22.7719 6.72031 22.8708C6.88568 22.97 7.05312 23.0649 7.22318 23.1557C7.39297 23.2466 7.56511 23.3331 7.73932 23.4157C7.91354 23.4979 8.08958 23.5761 8.2677 23.6498C8.44557 23.7234 8.62526 23.7927 8.80677 23.8578C8.98802 23.9227 9.17108 23.9831 9.35543 24.0391C9.53987 24.0948 9.72554 24.1463 9.91225 24.1929C10.0992 24.2399 10.2872 24.282 10.4761 24.3198C10.6651 24.3573 10.8549 24.3901 11.0456 24.4185C11.2359 24.4466 11.4274 24.4703 11.619 24.4894C11.8107 24.5081 12.0029 24.5221 12.1953 24.5317C12.3878 24.5412 12.5802 24.5458 12.7729 24.5458C12.9657 24.5458 13.1581 24.5412 13.3505 24.5317C13.5429 24.5221 13.7352 24.5081 13.9268 24.4894C14.1185 24.4703 14.3099 24.4466 14.5003 24.4185C14.6909 24.3901 14.8807 24.3573 15.0698 24.3198C15.2586 24.282 15.4466 24.2399 15.6336 24.1929C15.8203 24.1463 16.006 24.0948 16.1904 24.0391C16.3747 23.9831 16.5578 23.9227 16.7391 23.8578C16.9206 23.7927 17.1003 23.7234 17.2782 23.6498C17.4562 23.5761 17.6323 23.4979 17.8065 23.4157C17.9807 23.3331 18.1529 23.2466 18.3226 23.1557C18.4927 23.0649 18.6602 22.97 18.8255 22.8708C18.9907 22.7719 19.1534 22.6687 19.3136 22.5617C19.474 22.4546 19.6312 22.3437 19.7862 22.2291C19.9409 22.1144 20.0927 21.9958 20.2417 21.8734C20.3907 21.7513 20.5365 21.6255 20.6792 21.4961C20.8219 21.3666 20.9615 21.2338 21.0977 21.0977C21.2338 20.9615 21.3667 20.8219 21.4961 20.6791C21.6255 20.5365 21.7513 20.3907 21.8734 20.2416C21.9958 20.0927 22.1143 19.9409 22.2292 19.7862C22.3437 19.6312 22.4546 19.474 22.5617 19.3136C22.6687 19.1534 22.7719 18.9907 22.8708 18.8255C22.97 18.6602 23.0649 18.4927 23.1557 18.3227C23.2466 18.1526 23.333 17.9807 23.4157 17.8065C23.4979 17.6323 23.5761 17.4562 23.6497 17.2782C23.7234 17.1003 23.7927 16.9206 23.8578 16.7391C23.9226 16.5578 23.9831 16.3748 24.0391 16.1904C24.0948 16.006 24.1463 15.8203 24.1929 15.6336C24.2399 15.4466 24.282 15.2586 24.3198 15.0698C24.3573 14.8807 24.3901 14.6909 24.4185 14.5003C24.4466 14.3099 24.4703 14.1185 24.4893 13.9269C24.5081 13.7352 24.5221 13.5429 24.5317 13.3505C24.5412 13.1581 24.5458 12.9657 24.5458 12.7729C24.5458 12.5802 24.5412 12.3878 24.5317 12.1953C24.5221 12.0029 24.5081 11.8107 24.4893 11.619C24.4703 11.4274 24.4466 11.2359 24.4185 11.0456C24.3901 10.8549 24.3573 10.6651 24.3198 10.4761C24.282 10.2873 24.2399 10.0992 24.1929 9.91226C24.1463 9.72554 24.0948 9.53988 24.0391 9.35544C23.9831 9.17108 23.9226 8.98802 23.8578 8.80677C23.7927 8.62526 23.7234 8.44558 23.6497 8.26771C23.5761 8.08958 23.4979 7.91354 23.4157 7.73933C23.333 7.5651 23.2466 7.39297 23.1557 7.22318C23.0649 7.05313 22.97 6.88568 22.8708 6.72031C22.7719 6.55521 22.6687 6.39245 22.5617 6.23229C22.4546 6.07188 22.3437 5.91458 22.2292 5.75963C22.1143 5.60495 21.9958 5.45313 21.8734 5.30417C21.7513 5.15521 21.6255 5.00938 21.4961 4.86667C21.3667 4.72396 21.2338 4.58438 21.0977 4.44818C20.9615 4.31198 20.8219 4.17917 20.6792 4.04974C20.5365 3.92031 20.3907 3.79453 20.2417 3.67239C20.0927 3.55 19.9409 3.43151 19.7862 3.31667C19.6312 3.20208 19.474 3.09114 19.3136 2.98412C19.1534 2.87708 18.9907 2.77396 18.8255 2.675C18.6602 2.57578 18.4927 2.48099 18.3226 2.3901C18.1529 2.29922 17.9807 2.21276 17.8065 2.13021C17.6323 2.04792 17.4562 1.96979 17.2782 1.89609C17.1003 1.82239 16.9206 1.75313 16.7391 1.68802C16.5578 1.62318 16.3747 1.56276 16.1904 1.50677C16.006 1.45104 15.8203 1.39948 15.6336 1.35287C15.4466 1.30599 15.2586 1.2638 15.0698 1.22604C14.8807 1.18854 14.6909 1.15573 14.5003 1.12734C14.3099 1.09896 14.1185 1.07552 13.9268 1.05651C13.7352 1.03776 13.5429 1.02344 13.3505 1.01406C13.1581 1.00469 12.9657 1 12.7729 1Z" fill="#DB003C"/>
<path d="M9.58229 12.6923C9.38803 12.6923 9.23077 12.8498 9.23077 13.0439C9.23077 13.2382 9.38803 13.3956 9.58229 13.3956C9.77657 13.3956 9.93406 13.2382 9.93406 13.0439C9.93406 12.8498 9.77657 12.6923 9.58229 12.6923Z" fill="white"/>
<path d="M10.9972 12.3474C10.9255 12.2444 10.9254 12.1075 10.9972 12.0045L11.7131 10.9765C11.881 10.7355 12.2593 10.8542 12.2593 11.1479V13.2039C12.2593 13.4976 11.881 13.6163 11.7131 13.3754L10.9972 12.3474ZM12.2612 9C12.2601 9 12.2593 9.00084 12.2593 9.00188C12.2593 9.00347 12.2575 9.00434 12.2562 9.00333L12.2551 9.00238C12.2539 9.00142 12.2522 9.00166 12.2513 9.0029L10.7057 11.2219C10.5863 11.3932 10.3327 11.3932 10.2133 11.2219L8.66609 9.00072C8.66581 9.00032 8.66526 9.00021 8.66485 9.00048L8.6642 9.0009C8.66388 9.00111 8.66345 9.00088 8.66345 9.00049C8.66345 9.00022 8.66323 9 8.66296 9H8.3C8.13431 9 8 9.13431 8 9.3V16.7C8 16.8657 8.13431 17 8.3 17H8.36345C8.52913 17 8.66345 16.8657 8.66345 16.7V11.1552C8.66345 10.8614 9.04195 10.7427 9.20971 10.9838L12.2056 15.2902C12.2406 15.3405 12.2593 15.4003 12.2593 15.4615V16.7C12.2593 16.8657 12.3936 17 12.5593 17H12.6231C12.7888 17 12.9231 16.8657 12.9231 16.7V9.3C12.9231 9.13431 12.7888 9 12.6231 9H12.2612Z" fill="white"/>
<path d="M15.4725 13.044C15.4725 12.8498 15.3151 12.6923 15.1208 12.6923C14.9269 12.6923 14.7692 12.8498 14.7692 13.044C14.7692 13.2382 14.9269 13.3956 15.1208 13.3956C15.3151 13.3956 15.4725 13.2382 15.4725 13.044Z" fill="white"/>
<path d="M15.8624 9.22583C15.8285 9.09297 15.7089 9 15.5717 9H15.1977C15.0606 9 14.9409 9.09296 14.907 9.22582L13.0166 16.6335C12.9692 16.8193 13.1095 17 13.3013 17C13.4356 17 13.5528 16.909 13.586 16.7788L15.0939 10.8696C15.1708 10.5685 15.5984 10.5685 15.6753 10.8696L16.4644 13.9611C16.5128 14.1508 16.3695 14.3353 16.1737 14.3353H15.0256C14.8599 14.3353 14.7256 14.4696 14.7256 14.6353V14.7645C14.7256 14.9302 14.8599 15.0645 15.0256 15.0645H16.5128C16.6499 15.0645 16.7696 15.1574 16.8035 15.2903L16.9583 15.8969C17.0067 16.0866 16.8633 16.2711 16.6676 16.2711H15.0256C14.8599 16.2711 14.7256 16.4054 14.7256 16.5711V16.7C14.7256 16.8657 14.8599 17 15.0256 17H17.46C17.6558 17 17.7991 16.8155 17.7507 16.6258L15.8624 9.22583Z" fill="white"/>
</svg>
