<svg width="25" height="25" viewBox="0 0 25 25" fill="none" xmlns="http://www.w3.org/2000/svg">
<g clip-path="url(#clip0)">
<path d="M11.74 10.36C11.68 10.36 11.62 10.14 11.6 10.1C11.48 9.67999 10.86 8.67999 9.95997 8.29999C9.35997 8.05999 8.49997 8.01999 7.87997 8.47999C7.07997 9.05999 6.93997 10.1 6.89997 10.5C6.55997 13.08 8.85997 15.26 10.18 16.52C10.64 16.96 11.28 17.72 12.08 17.64C12.26 17.62 12.4 17.56 12.74 17.4C13.58 16.96 14.12 16.68 14.64 16.24C16.38 14.8 16.92 12.7 16.92 12.7C17.08 12.1 17.44 10.64 16.78 9.21999C16.56 8.75999 16.18 7.91999 15.3 7.65999C14.24 7.33999 13.24 8.09999 13.08 8.21999C12.44 8.69999 11.94 9.55999 11.86 10.08C11.84 10.1 11.8 10.34 11.74 10.36Z" fill="#DB003A"/>
<path d="M11.9999 10.2C11.7399 9.86 11.6399 9.4 11.3599 9.04C10.9599 8.52 10.4399 8.1 9.79995 7.92C8.61995 7.58 7.43995 8.1 6.91995 9.2C5.65995 11.84 7.65995 14.48 9.45995 16.24C10.1999 16.96 11.1399 18.18 12.3199 17.88C13.6199 17.56 14.9999 16.48 15.7999 15.44C17.1799 13.7 17.9799 11.18 17.0199 9.04C16.4799 7.82 15.4199 6.94 14.0199 7.36C13.4999 7.52 13.0199 7.8 12.6399 8.18C12.3399 8.48 12.0599 8.84 11.8599 9.22C11.6999 9.54 11.6599 9.9 11.4999 10.2C11.3199 10.54 11.8399 10.84 12.0199 10.5C12.3399 9.92 12.3799 9.36 12.8599 8.82C13.3199 8.3 13.9799 7.86 14.6799 7.84C16.4399 7.78 16.9599 10.22 16.8399 11.54C16.6399 13.68 15.2799 15.62 13.4199 16.66C12.5199 17.16 11.8199 17.58 10.9199 16.78C10.5599 16.48 10.2399 16.14 9.89995 15.8C8.89995 14.86 7.87995 13.76 7.39995 12.4C6.97995 11.2 6.95995 9.02 8.45995 8.5C9.31995 8.2 10.2199 8.62 10.7799 9.28C11.0999 9.66 11.1999 10.12 11.4799 10.5C11.7199 10.8 12.2399 10.5 11.9999 10.2Z" fill="#DB003A"/>
<path d="M12.02 20.96C11.5 20.96 10.98 20.92 10.44 20.82C8.08004 20.4 6.04004 19.1 4.66004 17.14C3.30004 15.18 2.78004 12.8 3.18004 10.44C3.60004 8.08 4.90004 6.04 6.86004 4.66C8.82004 3.30001 11.2 2.78001 13.56 3.18001C15.92 3.60001 17.96 4.9 19.34 6.86C20.72 8.82 21.24 11.2 20.82 13.54C20.4 15.9 19.1 17.94 17.14 19.32C15.62 20.4 13.84 20.96 12.02 20.96ZM11.98 3.84C10.32 3.84 8.70004 4.34001 7.32004 5.32C5.54004 6.56 4.34004 8.44 3.96004 10.58C3.60004 12.72 4.08004 14.9 5.32004 16.68C6.56004 18.46 8.44004 19.66 10.58 20.04C12.72 20.42 14.88 19.94 16.66 18.7C18.44 17.46 19.64 15.58 20.02 13.44C20.4 11.3 19.92 9.14 18.68 7.36C17.44 5.58 15.56 4.38001 13.42 4.00001C12.94 3.90001 12.46 3.84 11.98 3.84Z" fill="#DB003A"/>
</g>
<defs>
<clipPath id="clip0">
<rect width="25" height="25" fill="white"/>
</clipPath>
</defs>
</svg>
