<svg width="25" height="25" viewBox="0 0 25 25" fill="none" xmlns="http://www.w3.org/2000/svg">
<path d="M15.309 5.33334H8.69086C8.33081 5.33334 7.9855 5.46022 7.73091 5.68608C7.47631 5.91193 7.33328 6.21824 7.33328 6.53764V18.129C7.33328 18.4484 7.47631 18.7548 7.73091 18.9806C7.9855 19.2065 8.33081 19.3333 8.69086 19.3333H15.309C15.6691 19.3333 16.0144 19.2065 16.269 18.9806C16.5236 18.7548 16.6666 18.4484 16.6666 18.129V6.53764C16.6666 6.21824 16.5236 5.91193 16.269 5.68608C16.0144 5.46022 15.6691 5.33334 15.309 5.33334ZM11.9999 18.2645C11.8657 18.2645 11.7345 18.2292 11.6228 18.163C11.5112 18.0969 11.4242 18.0028 11.3728 17.8928C11.3215 17.7828 11.308 17.6617 11.3342 17.5449C11.3604 17.4281 11.425 17.3208 11.52 17.2366C11.6149 17.1524 11.7359 17.095 11.8675 17.0718C11.9992 17.0486 12.1357 17.0605 12.2597 17.1061C12.3837 17.1516 12.4898 17.2288 12.5643 17.3278C12.6389 17.4269 12.6787 17.5433 12.6787 17.6624C12.6787 17.8221 12.6072 17.9752 12.4799 18.0882C12.3526 18.2011 12.18 18.2645 11.9999 18.2645ZM15.6484 16.2624H8.35146V6.9441H15.6484V16.2624Z" fill="#04384A"/>
</svg>
