<svg width="25" height="25" viewBox="0 0 25 25" fill="none" xmlns="http://www.w3.org/2000/svg">
<g clip-path="url(#clip0)">
<path d="M21.8935 12.8302C21.8935 18.1655 17.6344 22.4778 12.3964 22.4778C7.1583 22.4778 2.89929 18.1655 2.89929 12.8302C2.89929 7.49495 7.1583 3.18265 12.3964 3.18265C17.6344 3.18265 21.8935 7.49495 21.8935 12.8302Z" stroke="#04384A"/>
<g clip-path="url(#clip1)">
<path d="M5.02295 12.0271L9.64765 13.9901L14.1851 10.467L10.7142 15.0728L12.6482 19.7671L17.0173 7.59219L5.02295 12.0271Z" fill="#04384A"/>
<path d="M27.4617 32.5884L27.7951 32.2501C27.643 32.1337 27.4863 32.0554 27.3249 32.015C27.1611 31.9722 26.9997 31.9627 26.8406 31.9865C26.6815 32.0102 26.526 32.0637 26.3739 32.1468C26.2219 32.2299 26.0803 32.3379 25.9493 32.4709C25.7575 32.6656 25.6218 32.8746 25.5423 33.0978C25.4627 33.3162 25.4323 33.5371 25.451 33.7603C25.4721 33.9811 25.5376 34.1996 25.6475 34.4157C25.7552 34.6294 25.9002 34.8288 26.0827 35.0141C26.2651 35.1993 26.4593 35.3489 26.6652 35.4629C26.8734 35.5745 27.0839 35.6409 27.2968 35.6623C27.5097 35.6837 27.7225 35.6552 27.9354 35.5768C28.146 35.4961 28.3483 35.3572 28.5425 35.1601C28.863 34.8348 29.0279 34.4893 29.0373 34.1236C29.0466 33.7579 28.9098 33.3982 28.6267 33.0444L28.2933 33.3827C28.3893 33.4943 28.4641 33.6131 28.5179 33.7389C28.5717 33.8648 28.5998 33.993 28.6021 34.1236C28.6045 34.2495 28.5811 34.3753 28.532 34.5012C28.4828 34.6223 28.4033 34.7386 28.2933 34.8502C28.1436 35.0022 27.9869 35.1043 27.8231 35.1565C27.6594 35.2088 27.4956 35.223 27.3319 35.1993C27.1681 35.1708 27.0067 35.109 26.8476 35.0141C26.6862 34.9167 26.5342 34.7956 26.3915 34.6508C26.2605 34.5178 26.1505 34.3729 26.0616 34.2162C25.9727 34.0595 25.9154 33.8992 25.8897 33.7354C25.8639 33.5668 25.8756 33.4005 25.9248 33.2367C25.9762 33.0705 26.0768 32.9114 26.2265 32.7594C26.402 32.5813 26.5973 32.4733 26.8125 32.4353C27.0301 32.3949 27.2465 32.446 27.4617 32.5884ZM28.1098 31.8024L29.9239 33.6439L30.2222 33.3411L29.4151 32.5219C29.2981 32.4032 29.2069 32.2868 29.1414 32.1728C29.0736 32.0565 29.0338 31.9401 29.0221 31.8238C29.0104 31.7074 29.0303 31.5899 29.0818 31.4712C29.1332 31.3524 29.2186 31.2325 29.3379 31.1114L29.0221 30.7908C28.856 30.9499 28.7554 31.1185 28.7203 31.2966C28.6852 31.4747 28.7051 31.6754 28.78 31.8986L28.773 31.9057L28.3905 31.5175L28.1098 31.8024ZM31.2203 30.1339L30.1781 31.1918C30.1126 31.1158 30.0623 31.0339 30.0272 30.946C29.9898 30.8558 29.9699 30.7644 29.9675 30.6718C29.9652 30.5792 29.9816 30.4889 30.0167 30.4011C30.0517 30.3085 30.1079 30.223 30.1851 30.1446C30.26 30.0686 30.3418 30.014 30.4307 29.9808C30.5196 29.9428 30.6097 29.925 30.7009 29.9273C30.7922 29.925 30.8822 29.9428 30.9711 29.9808C31.0623 30.0164 31.1454 30.0674 31.2203 30.1339ZM32.0133 30.3548L31.7185 30.654C31.8121 30.8012 31.8472 30.946 31.8238 31.0885C31.8028 31.2286 31.7291 31.3628 31.6027 31.491C31.5045 31.5907 31.4027 31.6608 31.2975 31.7012C31.1922 31.7415 31.0892 31.7581 30.9887 31.751C30.8857 31.7415 30.7886 31.7118 30.6974 31.662C30.6038 31.6097 30.5184 31.5421 30.4413 31.4589L31.7992 30.0805C31.694 29.9642 31.5676 29.8573 31.4203 29.7599C31.2752 29.6602 31.1185 29.5913 30.9501 29.5534C30.784 29.513 30.6144 29.5142 30.4413 29.5569C30.2681 29.5949 30.1009 29.6958 29.9395 29.8597C29.8155 29.9855 29.7242 30.1256 29.6658 30.28C29.6096 30.4319 29.585 30.5899 29.5921 30.7537C29.6014 30.9152 29.6424 31.0755 29.7149 31.2345C29.7874 31.3936 29.8927 31.5432 30.0307 31.6833C30.1734 31.8187 30.3208 31.9279 30.4728 32.011C30.6272 32.0918 30.7828 32.1381 30.9395 32.1499C31.0963 32.1618 31.2507 32.1381 31.4027 32.0787C31.5571 32.017 31.7068 31.9125 31.8519 31.7653C32.0577 31.5563 32.177 31.3307 32.2098 31.0885C32.2425 30.8463 32.177 30.6017 32.0133 30.3548ZM34.5261 28.9581C34.5051 29.0412 34.4489 29.1291 34.3577 29.2217C34.2805 29.3001 34.1975 29.3416 34.1086 29.3464C34.0197 29.3464 33.9261 29.2965 33.8278 29.1968C33.8442 29.3796 33.8197 29.5494 33.7541 29.7061C33.6886 29.8581 33.5927 29.9982 33.4664 30.1264C33.3845 30.2095 33.2968 30.2796 33.2032 30.3366C33.112 30.3912 33.0196 30.4256 32.926 30.4399C32.8324 30.4541 32.7377 30.4458 32.6418 30.4149C32.5459 30.3793 32.4523 30.3152 32.3611 30.2226C32.2581 30.1181 32.1915 30.0148 32.1611 29.9127C32.1306 29.8106 32.1236 29.7109 32.14 29.6135C32.1564 29.5114 32.1903 29.4129 32.2418 29.3179C32.2956 29.2205 32.3541 29.1255 32.4172 29.0329C32.4827 28.9332 32.5482 28.843 32.6137 28.7622C32.6792 28.6768 32.733 28.5984 32.7751 28.5272C32.8149 28.4535 32.8371 28.3859 32.8418 28.3241C32.8441 28.26 32.8172 28.1995 32.7611 28.1425C32.6956 28.076 32.6301 28.0356 32.5646 28.0214C32.5014 28.0047 32.4394 28.0059 32.3786 28.0249C32.3201 28.0416 32.2628 28.0712 32.2067 28.114C32.1529 28.1543 32.1026 28.1983 32.0558 28.2458C31.9295 28.374 31.8488 28.5058 31.8137 28.6411C31.7762 28.7741 31.8207 28.9118 31.947 29.0543L31.6487 29.3571C31.5411 29.2383 31.4698 29.1184 31.4347 28.9973C31.3996 28.8762 31.3937 28.7563 31.4171 28.6376C31.4382 28.5165 31.4826 28.4001 31.5505 28.2885C31.6207 28.1745 31.7072 28.0653 31.8102 27.9608C31.892 27.8777 31.9786 27.8017 32.0698 27.7329C32.1634 27.6616 32.2616 27.6118 32.3646 27.5833C32.4652 27.5524 32.5681 27.55 32.6734 27.5761C32.7786 27.6023 32.8839 27.6687 32.9892 27.7756L33.9226 28.7231C33.9928 28.7943 34.0477 28.843 34.0875 28.8691C34.1296 28.8928 34.1741 28.881 34.2208 28.8335C34.2466 28.8074 34.2711 28.7705 34.2945 28.7231L34.5261 28.9581ZM33.112 28.5058C33.1026 28.5723 33.0746 28.6435 33.0278 28.7195C32.9787 28.7931 32.9249 28.8691 32.8664 28.9475C32.8079 29.0211 32.7506 29.0982 32.6944 29.179C32.6359 29.2573 32.5915 29.3357 32.5611 29.4141C32.5307 29.4924 32.5201 29.572 32.5295 29.6527C32.5389 29.7287 32.581 29.8047 32.6558 29.8807C32.705 29.9305 32.7564 29.9638 32.8102 29.9804C32.864 29.9923 32.9167 29.9934 32.9681 29.9839C33.0219 29.9721 33.0746 29.9495 33.126 29.9163C33.1775 29.883 33.2266 29.8427 33.2734 29.7952C33.3717 29.6954 33.443 29.5969 33.4875 29.4995C33.5296 29.3998 33.553 29.3072 33.5576 29.2217C33.56 29.1339 33.5483 29.0555 33.5226 28.9866C33.4945 28.9154 33.4594 28.8584 33.4173 28.8157L33.112 28.5058ZM33.4106 26.4217L32.8668 25.8696L32.5685 26.1724L33.1124 26.7245L32.8036 27.0379L33.0668 27.305L33.3756 26.9916L34.53 28.1635C34.6142 28.2489 34.6903 28.3095 34.7581 28.3451C34.826 28.3807 34.8903 28.3962 34.9511 28.3914C35.0143 28.3843 35.0786 28.3594 35.1441 28.3166C35.2096 28.2691 35.281 28.2062 35.3582 28.1278L35.5862 27.8963L35.3231 27.6292L35.1862 27.7681C35.1394 27.8156 35.0997 27.8536 35.0669 27.8821C35.0342 27.9058 35.0037 27.9201 34.9757 27.9248C34.9476 27.9296 34.9195 27.9248 34.8915 27.9106C34.8657 27.8939 34.8353 27.8678 34.8002 27.8322L33.6738 26.6888L34.0353 26.322L33.7721 26.0548L33.4106 26.4217ZM36.0966 25.1842L35.0544 26.2421C34.9889 26.1661 34.9386 26.0842 34.9035 25.9963C34.8661 25.9061 34.8462 25.8147 34.8438 25.7221C34.8415 25.6294 34.8579 25.5392 34.893 25.4514C34.9281 25.3587 34.9842 25.2733 35.0614 25.1949C35.1363 25.1189 35.2181 25.0643 35.307 25.0311C35.3959 24.9931 35.486 24.9753 35.5772 24.9776C35.6685 24.9753 35.7585 24.9931 35.8474 25.0311C35.9387 25.0667 36.0217 25.1177 36.0966 25.1842ZM36.8896 25.4051L36.5948 25.7042C36.6884 25.8515 36.7235 25.9963 36.7001 26.1388C36.6791 26.2789 36.6054 26.4131 36.479 26.5413C36.3808 26.641 36.279 26.7111 36.1738 26.7514C36.0685 26.7918 35.9656 26.8084 35.865 26.8013C35.762 26.7918 35.6649 26.7621 35.5737 26.7123C35.4801 26.66 35.3948 26.5923 35.3176 26.5092L36.6755 25.1308C36.5703 25.0144 36.444 24.9076 36.2966 24.8102C36.1515 24.7105 35.9948 24.6416 35.8264 24.6036C35.6603 24.5633 35.4907 24.5645 35.3176 24.6072C35.1444 24.6452 34.9772 24.7461 34.8158 24.91C34.6918 25.0358 34.6005 25.1759 34.5421 25.3303C34.4859 25.4822 34.4614 25.6401 34.4684 25.804C34.4777 25.9655 34.5187 26.1257 34.5912 26.2848C34.6637 26.4439 34.769 26.5935 34.907 26.7336C35.0497 26.869 35.1971 26.9782 35.3491 27.0613C35.5035 27.142 35.6591 27.1884 35.8158 27.2002C35.9726 27.2121 36.127 27.1884 36.279 27.129C36.4334 27.0672 36.5831 26.9628 36.7282 26.8155C36.934 26.6066 37.0534 26.381 37.0861 26.1388C37.1189 25.8966 37.0534 25.652 36.8896 25.4051ZM37.1286 24.5213C37.0397 24.4311 36.9625 24.3337 36.897 24.2293C36.8315 24.1248 36.787 24.0179 36.7637 23.9087C36.7403 23.7995 36.7438 23.689 36.7742 23.5774C36.8046 23.4658 36.8701 23.359 36.9707 23.2569C37.0736 23.1524 37.1812 23.0835 37.2935 23.0503C37.4035 23.0147 37.5122 23.0064 37.6199 23.0253C37.7298 23.042 37.8374 23.0823 37.9427 23.1464C38.0456 23.2082 38.1415 23.2842 38.2304 23.3744C38.3146 23.4599 38.3872 23.5549 38.448 23.6594C38.5111 23.7615 38.5533 23.8683 38.5743 23.9799C38.593 24.0892 38.5872 24.1996 38.5568 24.3112C38.5264 24.4228 38.4609 24.5296 38.3603 24.6317C38.2643 24.7291 38.1614 24.7956 38.0515 24.8312C37.9439 24.8644 37.8351 24.8728 37.7251 24.8561C37.6175 24.8371 37.5122 24.7991 37.4093 24.7422C37.3064 24.6804 37.2128 24.6068 37.1286 24.5213ZM39.4235 24.0013L36.9181 21.4581L36.6198 21.7609L37.5532 22.7083L37.5462 22.7155C37.4596 22.6941 37.3742 22.6905 37.29 22.7048C37.2058 22.7143 37.1263 22.7356 37.0514 22.7689C36.9742 22.7998 36.904 22.8378 36.8409 22.8829C36.7777 22.928 36.7227 22.9743 36.6759 23.0218C36.5379 23.1619 36.442 23.3115 36.3882 23.4706C36.3344 23.6249 36.3157 23.7816 36.332 23.9407C36.3484 24.0951 36.3964 24.2482 36.4759 24.4002C36.5578 24.5498 36.6631 24.6899 36.7917 24.8205C36.9204 24.9511 37.0596 25.0568 37.2093 25.1375C37.359 25.2183 37.5111 25.2681 37.6655 25.2871C37.8222 25.3037 37.9778 25.2859 38.1322 25.2337C38.2889 25.1791 38.4375 25.0805 38.5778 24.9381C38.7041 24.8098 38.7977 24.6697 38.8585 24.5178C38.9194 24.3658 38.924 24.2138 38.8726 24.0618L38.8796 24.0547L39.1252 24.3041L39.4235 24.0013ZM38.3641 19.9903L40.8695 22.5335L41.1678 22.2307L40.9257 21.985L40.9327 21.9778C41.0193 21.9992 41.1046 22.0051 41.1889 21.9956C41.2731 21.9814 41.3526 21.9576 41.4275 21.9244C41.5023 21.8912 41.5713 21.852 41.6345 21.8069C41.7 21.7594 41.755 21.7131 41.7994 21.6679C41.9375 21.5278 42.0334 21.3806 42.0872 21.2263C42.1433 21.0696 42.1632 20.914 42.1468 20.7597C42.1304 20.6006 42.0813 20.4462 41.9994 20.2966C41.9199 20.1447 41.8158 20.0034 41.6871 19.8728C41.5585 19.7422 41.4193 19.6365 41.2696 19.5558C41.1198 19.475 40.9666 19.4264 40.8099 19.4097C40.6531 19.3884 40.4964 19.405 40.3397 19.4596C40.1853 19.5118 40.0379 19.6092 39.8975 19.7517C39.7712 19.8799 39.6788 20.0212 39.6203 20.1755C39.5595 20.3275 39.5548 20.4795 39.6063 20.6315L39.5993 20.6386L38.6624 19.6876L38.3641 19.9903ZM41.3503 20.172C41.4392 20.2622 41.5164 20.3596 41.5819 20.464C41.6474 20.5685 41.6918 20.6754 41.7152 20.7846C41.7386 20.8938 41.7351 21.0043 41.7047 21.1159C41.6766 21.2251 41.6111 21.3319 41.5082 21.4364C41.4052 21.5409 41.2988 21.611 41.1889 21.6466C41.0766 21.6798 40.9655 21.6881 40.8555 21.6715C40.7479 21.6525 40.6426 21.6121 40.5397 21.5504C40.4344 21.4863 40.3373 21.4091 40.2484 21.3189C40.1642 21.2334 40.0905 21.1396 40.0274 21.0375C39.9666 20.933 39.9268 20.8262 39.9081 20.7169C39.887 20.6053 39.8917 20.4937 39.9221 20.3821C39.9525 20.2705 40.018 20.1637 40.1186 20.0616C40.2145 19.9642 40.3163 19.8989 40.4239 19.8657C40.5338 19.83 40.6426 19.8217 40.7502 19.8407C40.8602 19.8573 40.9666 19.8965 41.0696 19.9583C41.1725 20.0153 41.2661 20.0865 41.3503 20.172ZM43.8935 19.9555C43.9473 20.0814 43.9871 20.193 44.0128 20.2903C44.0409 20.3853 44.0526 20.4732 44.0479 20.5539C44.0479 20.6346 44.0304 20.7094 43.9953 20.7783C43.9649 20.8472 43.9169 20.9148 43.8514 20.9813C43.8163 21.0169 43.7789 21.0502 43.7391 21.0811C43.6994 21.1119 43.6572 21.138 43.6128 21.1594L43.3391 20.8816C43.3765 20.8673 43.4151 20.8472 43.4549 20.821C43.4993 20.7949 43.5333 20.77 43.5567 20.7462C43.6175 20.6845 43.6526 20.618 43.6619 20.5468C43.676 20.4755 43.6666 20.4019 43.6339 20.3259L43.4514 19.8914L40.9284 18.7908L41.2653 18.4488L43.2794 19.4177L43.2865 19.4105L42.311 17.3874L42.6268 17.0668L43.8935 19.9555ZM43.2104 15.0711L45.7158 17.6142L46.0316 17.2937L44.021 15.2527L44.028 15.2456L47.3475 15.958L47.7125 15.5875L45.207 13.0444L44.8912 13.3649L46.9229 15.4273L46.9159 15.4344L43.5648 14.7113L43.2104 15.0711ZM49.8027 13.4516C49.7817 13.5347 49.7255 13.6225 49.6343 13.7151C49.5571 13.7935 49.474 13.8351 49.3851 13.8398C49.2962 13.8398 49.2027 13.7899 49.1044 13.6902C49.1208 13.8731 49.0962 14.0428 49.0307 14.1996C48.9652 14.3515 48.8693 14.4916 48.743 14.6199C48.6611 14.703 48.5734 14.773 48.4798 14.83C48.3886 14.8846 48.2962 14.919 48.2026 14.9333C48.109 14.9475 48.0143 14.9392 47.9184 14.9084C47.8225 14.8727 47.7289 14.8086 47.6376 14.716C47.5347 14.6115 47.468 14.5082 47.4376 14.4061C47.4072 14.304 47.4002 14.2043 47.4166 14.1069C47.433 14.0048 47.4669 13.9063 47.5183 13.8113C47.5721 13.714 47.6306 13.619 47.6938 13.5264C47.7593 13.4266 47.8248 13.3364 47.8903 13.2557C47.9558 13.1702 48.0096 13.0918 48.0517 13.0206C48.0915 12.947 48.1137 12.8793 48.1184 12.8176C48.1207 12.7534 48.0938 12.6929 48.0377 12.6359C47.9722 12.5694 47.9067 12.529 47.8412 12.5148C47.778 12.4982 47.716 12.4994 47.6552 12.5184C47.5967 12.535 47.5394 12.5647 47.4832 12.6074C47.4294 12.6478 47.3791 12.6917 47.3324 12.7392C47.206 12.8674 47.1253 12.9992 47.0902 13.1346C47.0528 13.2675 47.0973 13.4053 47.2236 13.5477L46.9253 13.8505C46.8177 13.7318 46.7464 13.6119 46.7113 13.4907C46.6762 13.3696 46.6703 13.2497 46.6937 13.131C46.7148 13.0099 46.7592 12.8935 46.8271 12.7819C46.8972 12.668 46.9838 12.5587 47.0867 12.4542C47.1686 12.3711 47.2552 12.2952 47.3464 12.2263C47.44 12.1551 47.5382 12.1052 47.6412 12.0767C47.7417 12.0458 47.8447 12.0434 47.9499 12.0696C48.0552 12.0957 48.1605 12.1622 48.2658 12.269L49.1992 13.2165C49.2693 13.2877 49.3243 13.3364 49.3641 13.3625C49.4062 13.3863 49.4506 13.3744 49.4974 13.3269C49.5232 13.3008 49.5477 13.264 49.5711 13.2165L49.8027 13.4516ZM48.3886 12.9992C48.3792 13.0657 48.3511 13.1369 48.3044 13.2129C48.2552 13.2865 48.2014 13.3625 48.1429 13.4409C48.0845 13.5145 48.0271 13.5917 47.971 13.6724C47.9125 13.7508 47.8681 13.8291 47.8377 13.9075C47.8072 13.9858 47.7967 14.0654 47.8061 14.1461C47.8154 14.2221 47.8575 14.2981 47.9324 14.3741C47.9815 14.424 48.033 14.4572 48.0868 14.4738C48.1406 14.4857 48.1932 14.4869 48.2447 14.4774C48.2985 14.4655 48.3511 14.4429 48.4026 14.4097C48.4541 14.3765 48.5032 14.3361 48.55 14.2886C48.6482 14.1889 48.7196 14.0903 48.764 13.993C48.8061 13.8932 48.8295 13.8006 48.8342 13.7151C48.8366 13.6273 48.8249 13.5489 48.7991 13.4801C48.7711 13.4088 48.736 13.3518 48.6939 13.3091L48.3886 12.9992ZM51.8839 11.3532L50.6488 8.92407L50.34 9.23751L51.4172 11.1573L51.4102 11.1645L49.5469 10.0425L49.2206 10.3737L50.34 12.2508L50.333 12.258L48.4381 11.168L48.1082 11.5028L50.5049 12.7531L50.8277 12.4254L49.7505 10.591L49.7575 10.5839L51.5681 11.6738L51.8839 11.3532ZM50.9218 7.98441L50.5569 7.61397L50.2586 7.91673L50.6235 8.28716L50.9218 7.98441ZM50.9499 8.61842L52.764 10.4599L53.0623 10.1571L51.2482 8.31566L50.9499 8.61842ZM53.5244 7.18769L53.8332 6.87425C53.7139 6.77689 53.5934 6.71159 53.4717 6.67835C53.3478 6.64273 53.2249 6.63442 53.1033 6.65342C52.984 6.67004 52.867 6.71278 52.7524 6.78164C52.6378 6.84576 52.529 6.93005 52.4261 7.03453C52.2834 7.17938 52.1839 7.33254 52.1278 7.49401C52.0693 7.65311 52.0483 7.81458 52.0646 7.97842C52.081 8.13752 52.1313 8.29543 52.2155 8.45215C52.2974 8.6065 52.4062 8.75253 52.5419 8.89026C52.6775 9.02798 52.8202 9.13721 52.97 9.21795C53.1197 9.29393 53.2706 9.33786 53.4226 9.34974C53.577 9.35923 53.7291 9.33311 53.8788 9.27138C54.0309 9.20726 54.1759 9.10516 54.3139 8.96506C54.5455 8.72997 54.6672 8.48302 54.6789 8.22419C54.6929 7.96299 54.604 7.70179 54.4122 7.44058L54.1069 7.75047C54.2285 7.91194 54.2858 8.07459 54.2788 8.23844C54.2741 8.39991 54.1981 8.55544 54.0507 8.70504C53.9572 8.80002 53.8577 8.86295 53.7525 8.89382C53.6472 8.92469 53.5431 8.93062 53.4402 8.91163C53.3349 8.89026 53.232 8.84989 53.1314 8.79053C53.0331 8.72879 52.9419 8.65518 52.8577 8.56969C52.7664 8.47708 52.6881 8.37854 52.6226 8.27406C52.5547 8.1672 52.5091 8.05916 52.4857 7.94993C52.4647 7.83832 52.4705 7.72553 52.5033 7.61155C52.536 7.49757 52.6062 7.38597 52.7138 7.27674C52.8401 7.14851 52.9723 7.07846 53.1103 7.06659C53.2483 7.05472 53.3864 7.09508 53.5244 7.18769ZM54.7213 6.63522C54.6114 6.52361 54.5283 6.41082 54.4722 6.29684C54.4161 6.17811 54.3845 6.06295 54.3775 5.95134C54.3704 5.83974 54.3856 5.73407 54.4231 5.63434C54.4628 5.53223 54.5213 5.442 54.5985 5.36364C54.6757 5.28528 54.7635 5.2271 54.8617 5.18911C54.9623 5.14874 55.0676 5.13212 55.1775 5.13924C55.2875 5.14636 55.3998 5.17961 55.5144 5.23897C55.629 5.29359 55.7413 5.3767 55.8512 5.4883C55.9612 5.59991 56.0442 5.71507 56.1004 5.8338C56.1565 5.94778 56.1881 6.06057 56.1951 6.17218C56.1998 6.28141 56.1823 6.38707 56.1425 6.48918C56.1051 6.58891 56.0478 6.67796 55.9706 6.75632C55.8934 6.83468 55.8045 6.89404 55.7039 6.93441C55.6056 6.97241 55.5027 6.98903 55.3951 6.98428C55.2851 6.97715 55.1728 6.94628 55.0582 6.89167C54.9436 6.83231 54.8313 6.74682 54.7213 6.63522ZM54.4055 6.95578C54.5389 7.09113 54.6816 7.19799 54.8336 7.27635C54.9857 7.35471 55.1424 7.39983 55.3038 7.4117C55.4629 7.4212 55.622 7.39508 55.7811 7.33334C55.9378 7.26923 56.0875 7.16475 56.2302 7.0199C56.3753 6.87267 56.4782 6.7207 56.539 6.56398C56.5998 6.40251 56.6256 6.24104 56.6162 6.07957C56.6045 5.91572 56.5601 5.75663 56.4829 5.60228C56.4057 5.44793 56.3004 5.30308 56.1671 5.16773C56.0337 5.03238 55.891 4.92553 55.739 4.84717C55.5846 4.76643 55.4278 4.72132 55.2687 4.71182C55.1073 4.69994 54.9471 4.72488 54.788 4.78662C54.6313 4.84598 54.4804 4.94927 54.3353 5.0965C54.1926 5.24135 54.0909 5.39451 54.0301 5.55598C53.9692 5.71745 53.9447 5.8801 53.9564 6.04395C53.9657 6.20542 54.0102 6.36452 54.0897 6.52124C54.1669 6.67558 54.2722 6.82043 54.4055 6.95578ZM55.6099 3.88825L57.4241 5.72973L57.7223 5.42697L56.6977 4.38691C56.6158 4.3038 56.5515 4.21713 56.5047 4.1269C56.4579 4.03191 56.431 3.93574 56.424 3.83839C56.417 3.74103 56.4322 3.64486 56.4696 3.54988C56.5094 3.45252 56.5749 3.35754 56.6661 3.26493C56.7807 3.14857 56.9036 3.0904 57.0346 3.0904C57.1656 3.0904 57.2872 3.14739 57.3995 3.26137L58.6276 4.50801L58.9259 4.20526L57.7328 2.99423C57.6346 2.8945 57.5352 2.81495 57.4346 2.75558C57.334 2.69147 57.2299 2.65466 57.1223 2.64517C57.0147 2.63567 56.9047 2.65466 56.7924 2.70216C56.6801 2.74965 56.5643 2.83394 56.445 2.95505C56.176 3.22812 56.0895 3.53919 56.1854 3.88825L56.1784 3.89537L55.8906 3.6033L55.6099 3.88825Z" fill="#04384A"/>
</g>
</g>
<defs>
<clipPath id="clip0">
<rect width="25" height="25" fill="white"/>
</clipPath>
<clipPath id="clip1">
<rect width="14.3485" height="16.7156" fill="white" transform="matrix(0.701804 -0.71237 0.701804 0.71237 3.19907 12.0923)"/>
</clipPath>
</defs>
</svg>
