<svg width="100" height="100" viewBox="0 0 100 100" fill="none" xmlns="http://www.w3.org/2000/svg">
<path d="M30.6015 47.951C29.4967 47.951 28.6023 48.8497 28.6023 49.9578C28.6023 51.0668 29.4967 51.9655 30.6015 51.9655C31.7065 51.9655 32.6023 51.0668 32.6023 49.9578C32.6023 48.8497 31.7065 47.951 30.6015 47.951Z" fill="#DB003C"/>
<path d="M39.6172 44.8865C39.0998 44.3151 39.0998 43.4445 39.6171 42.8731L45.0735 36.8459C45.9947 35.8284 47.6855 36.4801 47.6855 37.8526V49.9063C47.6855 51.2788 45.9948 51.9305 45.0735 50.913L39.6172 44.8865ZM47.6959 28C47.6902 28 47.6855 28.0047 47.6855 28.0104C47.6855 28.0186 47.6765 28.0236 47.6695 28.0192L47.6571 28.0113C47.6495 28.0065 47.6396 28.0079 47.6335 28.0145L37.0985 39.6485C36.5031 40.306 35.4702 40.306 34.8748 39.6485L24.3296 28.0037C24.3277 28.0015 24.3245 28.0009 24.3219 28.0022L24.3162 28.005C24.3145 28.0059 24.3124 28.0046 24.3124 28.0027C24.3124 28.0012 24.3112 28 24.3097 28H21.5C20.6716 28 20 28.6716 20 29.5V66.5C20 67.3284 20.6716 68 21.5 68H22.8124C23.6408 68 24.3124 67.3284 24.3124 66.5V37.8879C24.3124 36.5149 26.004 35.8634 26.9249 36.8817L47.298 59.4087C47.5474 59.6845 47.6855 60.043 47.6855 60.4148V66.5C47.6855 67.3284 48.3571 68 49.1855 68H50.5C51.3284 68 52 67.3284 52 66.5V29.5C52 28.6716 51.3284 28 50.5 28H47.6959Z" fill="#DB003C"/>
<path d="M70 50C70 48.8959 69.1048 48 67.9998 48C66.8966 48 66 48.8959 66 50C66 51.1046 66.8966 52 67.9998 52C69.1048 52 70 51.1046 70 50Z" fill="#DB003C"/>
<path d="M73.0721 29.0277C72.8686 28.4142 72.2949 28 71.6484 28H68.3531C67.7066 28 67.1329 28.4141 66.9294 29.0277L54.6543 66.0277C54.3322 66.9986 55.0551 68 56.078 68H56.8592C57.5056 68 58.0793 67.5859 58.2829 66.9723L68.5762 35.9441C69.0308 34.5739 70.9689 34.5738 71.4236 35.944L76.9849 52.7039C77.3071 53.6748 76.5842 54.6763 75.5612 54.6763H67.2162C66.3878 54.6763 65.7162 55.3479 65.7162 56.1763V56.8224C65.7162 57.6508 66.3878 58.3224 67.2162 58.3224H77.7654C78.4119 58.3224 78.9857 58.7366 79.1892 59.3502L80.1951 62.3832C80.517 63.3541 79.7942 64.3554 78.7713 64.3554H67.2162C66.3878 64.3554 65.7162 65.027 65.7162 65.8554V66.5C65.7162 67.3284 66.3878 68 67.2162 68H83.922C84.945 68 85.6678 66.9986 85.3458 66.0277L73.0721 29.0277Z" fill="#DB003C"/>
</svg>
