<svg width="25" height="25" viewBox="0 0 25 25" fill="none" xmlns="http://www.w3.org/2000/svg">
<g clip-path="url(#clip0)">
<path d="M4.90668 7.29333C4.39284 7.29333 3.97334 7.71283 3.97334 8.22667V16.44C3.97334 16.9538 4.39284 17.3733 4.90668 17.3733H19.0933C19.6072 17.3733 20.0267 16.9538 20.0267 16.44V8.22667C20.0267 7.71283 19.6072 7.29333 19.0933 7.29333H4.90668ZM4.90668 7.66667H19.0933C19.1812 7.66667 19.2649 7.68436 19.3383 7.71917L12 14.3225L4.66168 7.71917C4.73509 7.68436 4.81877 7.66667 4.90668 7.66667ZM4.39918 7.98167L9.27001 12.3683L4.39918 16.685C4.36437 16.6116 4.34668 16.5279 4.34668 16.44V8.22667C4.34668 8.13877 4.36437 8.05508 4.39918 7.98167ZM19.6008 7.98167C19.6357 8.05508 19.6533 8.13877 19.6533 8.22667V16.44C19.6533 16.5279 19.6357 16.6116 19.6008 16.685L14.73 12.3683L19.6008 7.98167ZM9.55584 12.6192L11.8775 14.7133C11.9115 14.7429 11.955 14.7592 12 14.7592C12.045 14.7592 12.0885 14.7429 12.1225 14.7133L14.4442 12.6192L19.3325 16.9475C19.2603 16.9809 19.1794 17 19.0933 17H4.90668C4.82064 17 4.73975 16.9809 4.66751 16.9475L9.55584 12.6192Z" fill="#04384A"/>
</g>
<defs>
<clipPath id="clip0">
<rect width="25" height="25" fill="white"/>
</clipPath>
</defs>
</svg>
