<svg width="100" height="100" viewBox="0 0 100 100" fill="none" xmlns="http://www.w3.org/2000/svg">
<g clip-path="url(#clip0)">
<g clip-path="url(#clip1)">
<path d="M14.1227 42.9965C14.1227 41.9158 14.565 40.8351 15.4495 39.9705C17.2186 38.2414 19.9828 38.2414 21.7519 39.9705L51.7159 69.2575L81.7904 39.9705C83.5595 38.2414 86.3237 38.2414 88.0928 39.9705C89.8619 41.6996 89.8619 44.4014 88.0928 46.1305L54.9224 78.5516C54.0378 79.4161 52.9321 79.8484 51.8265 79.8484C50.6102 79.8484 49.5045 79.4161 48.7305 78.5516L15.5601 46.1305C14.565 45.1579 14.1227 44.0772 14.1227 42.9965Z" fill="#DB003A"/>
</g>
<g clip-path="url(#clip2)">
<path d="M13.3329 19.0666C13.3329 17.9859 13.7752 16.9052 14.6598 16.0407C16.4288 14.3116 19.1931 14.3116 20.9622 16.0407L50.9261 45.3277L81.0007 16.0407C82.7698 14.3116 85.534 14.3116 87.3031 16.0407C89.0722 17.7698 89.0722 20.4716 87.3031 22.2007L54.1326 54.6217C53.2481 55.4863 52.1424 55.9186 51.0367 55.9186C49.8204 55.9186 48.7148 55.4863 47.9408 54.6217L14.7703 22.2007C13.7752 21.2281 13.3329 20.1474 13.3329 19.0666Z" fill="#DB003A"/>
</g>
</g>
<defs>
<clipPath id="clip0">
<rect width="100" height="100" fill="white"/>
</clipPath>
<clipPath id="clip1">
<rect width="108.07" height="138.21" fill="white" transform="translate(107 1.92982) rotate(90)"/>
</clipPath>
<clipPath id="clip2">
<rect width="108.07" height="138.21" fill="white" transform="translate(106.21 -22) rotate(90)"/>
</clipPath>
</defs>
</svg>
