<svg width="25" height="25" viewBox="0 0 25 25" fill="none" xmlns="http://www.w3.org/2000/svg">
<path d="M16.3426 17.1113C16.2226 17.2313 16.0946 17.2993 15.9266 17.3473C15.8786 17.3593 15.8306 17.3713 15.7826 17.3793C15.7866 17.3793 15.6666 17.3993 15.7226 17.3913C15.7706 17.3833 15.6906 17.3953 15.6786 17.3953C15.5506 17.4033 15.4226 17.4073 15.2906 17.3993C14.7906 17.3633 14.1906 17.1513 13.6946 16.9073C12.2946 16.2113 11.0546 15.1033 10.1226 13.8513C9.71461 13.2993 9.33861 12.6993 9.08661 12.0593C8.87861 11.5313 8.74661 11.0433 8.79461 10.4953C8.79461 10.4833 8.80661 10.4153 8.79461 10.4873C8.79861 10.4633 8.80261 10.4393 8.80661 10.4153C8.81861 10.3633 8.83061 10.3073 8.84661 10.2553C8.85061 10.2353 8.90661 10.0913 8.87461 10.1673C8.89861 10.1153 8.92261 10.0633 8.95461 10.0153C8.96661 9.99527 9.03861 9.89127 8.99061 9.95527C9.01861 9.91927 9.05061 9.88727 9.08261 9.85527C9.11061 9.82727 9.13461 9.80327 9.16261 9.77527C9.45061 9.48727 9.73861 9.19927 10.0226 8.91527C10.0906 8.84727 10.1466 8.75927 10.2226 8.80327C10.3066 8.85527 10.3866 8.96727 10.4546 9.03527C10.7226 9.30327 11.0346 9.55927 11.2746 9.85527C11.3306 9.92727 11.3226 9.93927 11.2666 10.0113C11.1386 10.1633 10.9786 10.2993 10.8386 10.4393C10.7346 10.5433 10.6226 10.6433 10.5266 10.7553C10.3426 10.9713 10.2546 11.2273 10.2306 11.5073C10.1746 12.1273 10.4586 12.7713 10.7706 13.2873C11.2066 14.0033 11.7946 14.6193 12.4666 15.1193C13.2986 15.7393 14.6866 16.4313 15.5746 15.5473C15.7266 15.3953 15.8826 15.2393 16.0346 15.0873C16.0906 15.0313 16.2106 14.8753 16.2706 14.8753C16.3426 14.8753 16.4426 15.0193 16.4946 15.0713C16.6466 15.2233 16.8026 15.3793 16.9546 15.5313C17.0866 15.6633 17.2226 15.7873 17.3466 15.9233C17.4026 15.9873 17.4346 16.0033 17.3826 16.0753C17.2986 16.1873 17.1706 16.2873 17.0746 16.3833C16.9106 16.5473 16.7506 16.7073 16.5866 16.8713C16.5026 16.9473 16.4226 17.0273 16.3426 17.1113C15.9786 17.4753 16.5426 18.0433 16.9066 17.6753C17.1706 17.4113 17.4346 17.1473 17.6986 16.8833C17.7946 16.7873 17.8986 16.6913 17.9906 16.5873C18.2906 16.2353 18.2666 15.7353 17.9546 15.3993C17.7026 15.1273 17.4266 14.8713 17.1626 14.6073C17.0706 14.5153 16.9826 14.4193 16.8866 14.3313C16.5506 14.0193 16.0506 13.9913 15.6986 14.2953C15.4266 14.5273 15.1906 14.8073 14.9346 15.0553C14.9226 15.0673 14.8546 15.1233 14.8946 15.0953C14.9426 15.0633 14.7546 15.1593 14.8506 15.1233C14.7946 15.1473 14.7346 15.1593 14.6786 15.1713C14.6946 15.1673 14.7546 15.1673 14.6706 15.1713C14.6306 15.1753 14.5906 15.1753 14.5506 15.1753C14.3066 15.1713 14.0266 15.0913 13.7666 14.9713C13.0146 14.6313 12.3706 14.0713 11.8506 13.4393C11.6106 13.1473 11.4026 12.8193 11.2426 12.4753C11.1226 12.2233 11.0346 11.9193 11.0266 11.6953C11.0266 11.6353 11.0266 11.5753 11.0306 11.5153C11.0386 11.4473 11.0066 11.6033 11.0386 11.4913C11.0466 11.4673 11.0506 11.4433 11.0586 11.4233C11.0626 11.4033 11.0746 11.3793 11.0826 11.3553C11.0506 11.4313 11.0826 11.3593 11.0946 11.3433C11.1066 11.3233 11.1506 11.2633 11.0986 11.3273C11.1146 11.3113 11.1306 11.2913 11.1466 11.2753C11.2706 11.1513 11.3986 11.0233 11.5226 10.8993C11.6386 10.7833 11.7626 10.6713 11.8746 10.5473C12.1866 10.2113 12.2146 9.71127 11.9106 9.35927C11.6666 9.07127 11.3746 8.81527 11.1066 8.55127C11.0066 8.45127 10.9106 8.34727 10.8066 8.25127C10.5026 7.97127 10.0466 7.90727 9.69861 8.15127C9.56661 8.24327 9.45861 8.36727 9.34661 8.48327C9.17461 8.65527 9.00661 8.82327 8.83461 8.99527C8.55461 9.27527 8.28661 9.53527 8.13861 9.91927C7.93461 10.4433 7.98261 11.0433 8.11061 11.5793C8.27461 12.2753 8.59061 12.9393 8.96261 13.5433C9.86661 15.0193 11.1546 16.3113 12.6226 17.2233C13.2226 17.5953 13.8826 17.9193 14.5706 18.0913C15.1066 18.2273 15.7186 18.2873 16.2506 18.0993C16.5026 18.0113 16.7266 17.8793 16.9186 17.6913C17.2746 17.3153 16.7106 16.7513 16.3426 17.1113Z" fill="#04384A"/>
<path d="M6.98565 19.4996C8.54327 20.9335 10.5191 21.8168 12.6229 22.0132C14.4537 22.1838 16.3228 21.7998 17.9444 20.9378C21.0981 19.2649 23.0867 15.851 22.9971 12.2834C22.9032 8.74141 20.778 5.43841 17.5689 3.92347C15.9515 3.1596 14.1251 2.84808 12.3456 3.06998C10.5618 3.29189 8.88893 3.99602 7.48495 5.11835C4.51907 7.49532 3.26018 11.5665 4.33131 15.2109C4.4892 15.7443 4.69831 16.2649 4.94155 16.7642C4.94155 16.6191 4.94155 16.4783 4.94155 16.3332C4.39105 17.3915 3.84055 18.4456 3.29005 19.5039C3.20897 19.6575 3.13216 19.8069 3.05107 19.9605C2.88038 20.2891 3.16203 20.6817 3.5333 20.5878C4.6599 20.3019 5.79077 20.016 6.91738 19.7301C7.07527 19.6917 7.23743 19.649 7.39533 19.6106C7.92876 19.474 7.70259 18.6504 7.16916 18.787C6.04255 19.0729 4.91595 19.3588 3.78507 19.6447C3.62718 19.6831 3.46502 19.7258 3.30712 19.7642C3.46928 19.9733 3.62718 20.1824 3.78934 20.3915C4.2801 19.4484 4.77512 18.501 5.26588 17.5579C5.37683 17.3488 5.48352 17.1397 5.59447 16.9306C5.62007 16.8837 5.64568 16.8325 5.67128 16.7855C5.79077 16.5423 5.68835 16.3631 5.58593 16.1369C5.06531 15.0103 4.80499 13.7642 4.80499 12.5266C4.80499 10.6276 5.43657 8.76702 6.58452 7.25634C7.69832 5.79688 9.28154 4.71295 11.0397 4.20085C12.8961 3.65889 14.8932 3.76131 16.6941 4.4697C18.3925 5.13969 19.8648 6.38152 20.8292 7.92633C21.8534 9.56503 22.293 11.5024 22.1052 13.4228C21.9217 15.2621 21.1109 17.0373 19.8563 18.3944C18.5846 19.7685 16.9032 20.703 15.0639 21.053C12.9302 21.4584 10.677 21.0146 8.84199 19.8624C8.39391 19.5807 7.9757 19.2564 7.5831 18.8979C7.18196 18.5224 6.58025 19.1241 6.98565 19.4996Z" fill="#04384A"/>
</svg>
