<svg width="100" height="100" viewBox="0 0 100 100" fill="none" xmlns="http://www.w3.org/2000/svg">
<path d="M48.7947 15C48.2413 15 47.6885 15.0131 47.1366 15.0401C46.5839 15.0678 46.0326 15.1079 45.4821 15.1626C44.9316 15.2166 44.3832 15.2844 43.8356 15.3653C43.2888 15.4462 42.7441 15.541 42.2016 15.649C41.6591 15.7569 41.1195 15.8779 40.5828 16.0128C40.0469 16.147 39.5139 16.2943 38.9845 16.4547C38.4551 16.6151 37.9301 16.7886 37.4095 16.9753C36.8889 17.1613 36.3726 17.3603 35.8622 17.5725C35.351 17.784 34.8457 18.0078 34.3455 18.2441C33.8453 18.481 33.3517 18.7297 32.8639 18.99C32.376 19.251 31.8948 19.523 31.4208 19.8074C30.9461 20.0918 30.4788 20.3878 30.0194 20.6948C29.5593 21.0025 29.1072 21.3211 28.6631 21.65C28.2191 21.9796 27.783 22.3201 27.355 22.6708C26.9277 23.0216 26.5092 23.3825 26.0994 23.7544C25.6896 24.1255 25.2893 24.5069 24.8977 24.8977C24.5069 25.2893 24.1255 25.6896 23.7544 26.0994C23.3825 26.5092 23.0216 26.9277 22.6708 27.355C22.3201 27.783 21.9796 28.2191 21.65 28.6631C21.3211 29.1072 21.0025 29.5593 20.6948 30.0194C20.3878 30.4788 20.0918 30.9461 19.8074 31.4208C19.523 31.8948 19.251 32.376 18.99 32.8639C18.7297 33.3517 18.481 33.8453 18.2441 34.3455C18.0078 34.8457 17.784 35.351 17.5725 35.8622C17.3603 36.3726 17.1613 36.8889 16.9753 37.4095C16.7886 37.9301 16.6151 38.4551 16.4547 38.9845C16.2943 39.5139 16.147 40.0469 16.0128 40.5828C15.8779 41.1195 15.7569 41.6591 15.649 42.2016C15.541 42.7441 15.4462 43.2888 15.3653 43.8356C15.2844 44.3832 15.2166 44.9316 15.1626 45.4821C15.1079 46.0326 15.0678 46.5839 15.0401 47.1366C15.0131 47.6885 15 48.2413 15 48.7947C15 49.3481 15.0131 49.9008 15.0401 50.4528C15.0678 51.0055 15.1079 51.5568 15.1626 52.1073C15.2166 52.6578 15.2844 53.2062 15.3653 53.7538C15.4462 54.3006 15.541 54.8453 15.649 55.3878C15.7569 55.9303 15.8779 56.4699 16.0128 57.0066C16.147 57.5425 16.2943 58.0755 16.4547 58.6049C16.6151 59.1343 16.7886 59.6593 16.9753 60.1799C17.1613 60.7005 17.3603 61.2168 17.5725 61.7272C17.784 62.2383 18.0078 62.7436 18.2441 63.2439C18.481 63.7441 18.7297 64.2377 18.99 64.7255C19.251 65.2133 19.523 65.6946 19.8074 66.1685C20.0918 66.6432 20.3878 67.1106 20.6948 67.57C21.0025 68.0301 21.3211 68.4822 21.65 68.9263C21.9796 69.3703 22.3201 69.8064 22.6708 70.2344C23.0216 70.6617 23.3825 71.0802 23.7544 71.49C24.1255 71.8998 24.5069 72.3001 24.8977 72.6917C25.2893 73.0825 25.6896 73.4639 26.0994 73.835C26.5092 74.2069 26.9277 74.5678 27.355 74.9185C27.783 75.2693 28.2191 75.6098 28.6631 75.9394C29.1072 76.2682 29.5593 76.5869 30.0194 76.8939C30.4788 77.2016 30.9461 77.4976 31.4208 77.782C31.8948 78.0656 32.376 78.3383 32.8639 78.5994C33.3517 78.8597 33.8453 79.1083 34.3455 79.3453C34.8457 79.5816 35.351 79.8054 35.8622 80.0169C36.3726 80.2291 36.8889 80.4281 37.4095 80.6141C37.9301 80.8007 38.4551 80.9743 38.9845 81.1347C39.5139 81.2951 40.0469 81.4424 40.5828 81.5766C41.1195 81.7115 41.6591 81.8325 42.2016 81.9404C42.7441 82.0483 43.2888 82.1431 43.8356 82.2241C44.3832 82.305 44.9316 82.3728 45.4821 82.4268C46.0326 82.4815 46.5839 82.5216 47.1366 82.5493C47.6885 82.5763 48.2413 82.5894 48.7947 82.5894C49.3481 82.5894 49.9008 82.5763 50.4528 82.5493C51.0055 82.5216 51.5568 82.4815 52.1073 82.4268C52.6578 82.3728 53.2062 82.305 53.7538 82.2241C54.3006 82.1431 54.8453 82.0483 55.3878 81.9404C55.9303 81.8325 56.4699 81.7115 57.0066 81.5766C57.5425 81.4424 58.0755 81.2951 58.6049 81.1347C59.1343 80.9743 59.6593 80.8007 60.1799 80.6141C60.7005 80.4281 61.2168 80.2291 61.7272 80.0169C62.2383 79.8054 62.7436 79.5816 63.2439 79.3453C63.7441 79.1083 64.2377 78.8597 64.7255 78.5994C65.2133 78.3383 65.6946 78.0656 66.1685 77.782C66.6432 77.4976 67.1106 77.2016 67.57 76.8939C68.0301 76.5869 68.4822 76.2682 68.9263 75.9394C69.3703 75.6098 69.8064 75.2693 70.2344 74.9185C70.6617 74.5678 71.0802 74.2069 71.49 73.835C71.8998 73.4639 72.3001 73.0825 72.6917 72.6917C73.0825 72.3001 73.4639 71.8998 73.835 71.49C74.2069 71.0802 74.5678 70.6617 74.9185 70.2344C75.2693 69.8064 75.6098 69.3703 75.9394 68.9263C76.2682 68.4822 76.5869 68.0301 76.8939 67.57C77.2016 67.1106 77.4976 66.6432 77.782 66.1685C78.0656 65.6946 78.3383 65.2133 78.5994 64.7255C78.8597 64.2377 79.1083 63.7441 79.3453 63.2439C79.5816 62.7436 79.8054 62.2383 80.0169 61.7272C80.2291 61.2168 80.4281 60.7005 80.6141 60.1799C80.8007 59.6593 80.9743 59.1343 81.1347 58.6049C81.2951 58.0755 81.4424 57.5425 81.5766 57.0066C81.7115 56.4699 81.8325 55.9303 81.9404 55.3878C82.0483 54.8453 82.1431 54.3006 82.2241 53.7538C82.305 53.2062 82.3728 52.6578 82.4268 52.1073C82.4815 51.5568 82.5216 51.0055 82.5493 50.4528C82.5763 49.9008 82.5894 49.3481 82.5894 48.7947C82.5894 48.2413 82.5763 47.6885 82.5493 47.1366C82.5216 46.5839 82.4815 46.0326 82.4268 45.4821C82.3728 44.9316 82.305 44.3832 82.2241 43.8356C82.1431 43.2888 82.0483 42.7441 81.9404 42.2016C81.8325 41.6591 81.7115 41.1195 81.5766 40.5828C81.4424 40.0469 81.2951 39.5139 81.1347 38.9845C80.9743 38.4551 80.8007 37.9301 80.6141 37.4095C80.4281 36.8889 80.2291 36.3726 80.0169 35.8622C79.8054 35.351 79.5816 34.8457 79.3453 34.3455C79.1083 33.8453 78.8597 33.3517 78.5994 32.8639C78.3383 32.376 78.0656 31.8948 77.782 31.4208C77.4976 30.9461 77.2016 30.4788 76.8939 30.0194C76.5869 29.5593 76.2682 29.1072 75.9394 28.6631C75.6098 28.2191 75.2693 27.783 74.9185 27.355C74.5678 26.9277 74.2069 26.5092 73.835 26.0994C73.4639 25.6896 73.0825 25.2893 72.6917 24.8977C72.3001 24.5069 71.8998 24.1255 71.49 23.7544C71.0802 23.3825 70.6617 23.0216 70.2344 22.6708C69.8064 22.3201 69.3703 21.9796 68.9263 21.65C68.4822 21.3211 68.0301 21.0025 67.57 20.6948C67.1106 20.3878 66.6432 20.0918 66.1685 19.8074C65.6946 19.523 65.2133 19.251 64.7255 18.99C64.2377 18.7297 63.7441 18.481 63.2439 18.2441C62.7436 18.0078 62.2383 17.784 61.7272 17.5725C61.2168 17.3603 60.7005 17.1613 60.1799 16.9753C59.6593 16.7886 59.1343 16.6151 58.6049 16.4547C58.0755 16.2943 57.5425 16.147 57.0066 16.0128C56.4699 15.8779 55.9303 15.7569 55.3878 15.649C54.8453 15.541 54.3006 15.4462 53.7538 15.3653C53.2062 15.2844 52.6578 15.2166 52.1073 15.1626C51.5568 15.1079 51.0055 15.0678 50.4528 15.0401C49.9008 15.0131 49.3481 15 48.7947 15Z" fill="#6A9B9E"/>
<path d="M38.8532 53.1215C43.3004 53.1215 46.9178 49.5034 46.9178 45.0569V40.7148C46.9178 40.0286 46.3629 39.4737 45.6775 39.4737C44.9914 39.4737 44.4365 40.0286 44.4365 40.7148V45.0569C44.4365 48.1348 41.9332 50.6402 38.8532 50.6402C35.7762 50.6402 33.2707 48.1348 33.2707 45.0569V40.7148C33.2707 40.0286 32.7158 39.4737 32.0297 39.4737C31.3443 39.4737 30.7894 40.0286 30.7894 40.7148V45.0569C30.7894 49.5034 34.4068 53.1215 38.8532 53.1215Z" fill="#F0F5F5"/>
<path d="M40.0943 59.3245V54.2751C39.6896 54.3305 39.2754 54.3618 38.8532 54.3618C38.4318 54.3618 38.0176 54.3305 37.6129 54.2751V59.3245C37.6129 63.4319 40.9496 66.7693 45.057 66.7693C49.1644 66.7693 52.501 63.4319 52.501 59.3245V46.298C52.501 43.9034 54.4494 41.9551 56.8432 41.9551C59.2378 41.9551 61.1861 43.9034 61.1861 46.298V59.6592C61.5522 59.4485 61.9736 59.3245 62.4265 59.3245C62.88 59.3245 63.3015 59.4485 63.6675 59.6592V46.298C63.6675 42.5318 60.6094 39.4737 56.8432 39.4737C53.0778 39.4737 50.0197 42.5318 50.0197 46.298V59.3245C50.0197 62.0604 47.7928 64.288 45.057 64.288C42.3211 64.288 40.0943 62.0604 40.0943 59.3245Z" fill="#F0F5F5"/>
<path d="M64.9078 58.8645V60.5656C65.2979 61.0841 65.5283 61.7287 65.5283 62.4265C65.5283 64.14 64.14 65.5283 62.4265 65.5283C60.7136 65.5283 59.3246 64.14 59.3246 62.4265C59.3246 61.7287 59.555 61.0841 59.9451 60.5656V58.8645C58.8207 59.6498 58.0843 60.9536 58.0843 62.4265C58.0843 64.8211 60.0326 66.7694 62.4265 66.7694C64.821 66.7694 66.7694 64.8211 66.7694 62.4265C66.7694 60.9536 66.0322 59.6498 64.9078 58.8645Z" fill="#F0F5F5"/>
<path d="M60.5656 62.4265C60.5656 63.4539 61.3991 64.288 62.4265 64.288C63.4539 64.288 64.288 63.4539 64.288 62.4265C64.288 61.3991 63.4539 60.5656 62.4265 60.5656C61.3991 60.5656 60.5656 61.3991 60.5656 62.4265Z" fill="#F0F5F5"/>
<path d="M42.5756 33.2707H43.1962C43.5374 33.2707 43.8159 32.9914 43.8159 32.6502H45.057V38.3129C45.2561 38.2575 45.4617 38.2334 45.6775 38.2334C45.8933 38.2334 46.099 38.2575 46.298 38.3129V32.6502C46.298 31.9669 45.738 31.4091 45.057 31.4091H43.8159C43.8159 31.0679 43.5374 30.7893 43.1962 30.7893H42.5756C41.8895 30.7893 41.3346 31.3442 41.3346 32.0296C41.3346 32.7158 41.8895 33.2707 42.5756 33.2707Z" fill="#F0F5F5"/>
<path d="M32.6502 38.3129V32.6502H33.8905C33.8905 32.9914 34.1698 33.2707 34.511 33.2707H35.1315C35.817 33.2707 36.3718 32.7158 36.3718 32.0296C36.3718 31.3442 35.817 30.7893 35.1315 30.7893H34.511C34.1698 30.7893 33.8905 31.0679 33.8905 31.4091H32.6502C31.967 31.4091 31.4092 31.9669 31.4092 32.6502V38.3129C31.6082 38.2575 31.8117 38.2334 32.0297 38.2334C32.2477 38.2334 32.4511 38.2575 32.6502 38.3129Z" fill="#F0F5F5"/>
</svg>
